<svg width="113" height="153" viewBox="0 0 113 153" fill="none" xmlns="http://www.w3.org/2000/svg">
<path d="M104.691 10.082H0.0349121L6.92209 152.611H111.578L104.691 10.082Z" fill="#D7D7D7"/>
<path opacity="0.2" d="M104.691 10.082H0.0349121L6.92209 152.611H111.578L104.691 10.082Z" fill="black"/>
<path d="M105.658 10.082H1.00195L7.89367 152.611H112.55L105.658 10.082Z" fill="#D7D7D7"/>
<path opacity="0.2" d="M100.133 14.8765H5.78711L12.3792 146.169L94.417 146.06L108.051 133.974L100.133 14.8765Z" fill="black"/>
<path d="M100.855 14.8718C101.861 54.1911 105.036 93.4249 110.366 132.394C102.89 137.54 95.4521 142.685 88.0519 147.83H17.4912C10.8312 103.797 6.92229 59.3914 5.78711 14.8718H100.855Z" fill="white"/>
<path d="M110.366 132.394C102.89 137.54 95.452 142.685 88.0518 147.83C89.668 141.02 91.3523 134.21 93.1048 127.4L110.366 132.394Z" fill="#EBEBEB"/>
<path d="M31.37 26.8847C31.5486 31.691 31.7575 36.5004 31.9966 41.3128H17.573C17.3309 36.5004 17.122 31.691 16.9465 26.8847H31.37ZM32.841 25.3638H15.3711C15.5739 31.1841 15.8266 37.0074 16.1293 42.8337H33.6037C33.3011 37.0104 33.0483 31.1871 32.8455 25.3638H32.841Z" fill="#D7D7D7"/>
<path d="M90.3083 32.301H40.904C40.8586 31.2159 40.8177 30.1263 40.7769 29.0413H90.1766C90.2175 30.1263 90.2629 31.2159 90.3083 32.301Z" fill="#E0E0E0"/>
<path d="M79.8708 39.1562H41.2082C41.1582 38.0666 41.1037 36.9815 41.0583 35.8965H79.7164C79.7679 36.9831 79.8193 38.0696 79.8708 39.1562Z" fill="#E0E0E0"/>
<path d="M32.7865 55.1418C33.0892 59.9542 33.4267 64.7666 33.799 69.579H19.3709C18.9986 64.7666 18.6611 59.9542 18.3584 55.1418H32.7865ZM34.2121 53.6208H16.7422C17.0993 59.4472 17.5064 65.2735 17.9634 71.0999H35.4561C35.0021 65.2765 34.5935 59.4502 34.2303 53.6208H34.2121Z" fill="#D7D7D7"/>
<path d="M60.6077 60.5623H42.4477C42.375 59.4728 42.2978 58.3877 42.2297 57.2981H60.3897C60.4578 58.3877 60.5305 59.4728 60.6077 60.5623Z" fill="#E0E0E0"/>
<path d="M77.8005 60.5623H64.4484C64.3757 59.4728 64.2986 58.3877 64.2305 57.2981H77.5826C77.6507 58.3877 77.7233 59.4728 77.8005 60.5623Z" fill="#E0E0E0"/>
<path d="M86.1814 67.4225H42.9469C42.8652 66.3329 42.788 65.2478 42.7063 64.1582H85.9407C86.0225 65.2478 86.0996 66.3329 86.1814 67.4225Z" fill="#E0E0E0"/>
<path d="M34.9519 83.4123C35.3847 88.2247 35.8508 93.037 36.3502 97.8494H21.9221C21.4227 93.037 20.9566 88.2247 20.5238 83.4123H34.9519ZM36.3412 81.8914H18.8667C19.3812 87.7207 19.9442 93.5486 20.5556 99.3749H38.03C37.4247 93.5455 36.8618 87.7177 36.3412 81.8914Z" fill="#D7D7D7"/>
<path d="M94.5214 92.4331H45.1125L45.4394 95.6928H94.8482L94.5214 92.4331Z" fill="#E0E0E0"/>
<path d="M83.126 85.5732H44.4634C44.5633 86.6583 44.6631 87.7479 44.7676 88.833H83.4257C83.3258 87.7479 83.2214 86.6719 83.126 85.5732Z" fill="#E0E0E0"/>
<path d="M37.8712 111.683C38.4342 116.495 39.0289 121.306 39.6554 126.115H25.2273C24.6008 121.309 24.006 116.498 23.4431 111.683H37.8712ZM39.2332 110.162H21.7451C22.411 115.991 23.1298 121.816 23.9016 127.636H41.3579C40.5922 121.816 39.8733 115.991 39.2014 110.162H39.2332Z" fill="#D7D7D7"/>
<path d="M97.2409 117.09H47.8321C47.7004 116 47.5688 114.915 47.4417 113.826H96.8459C96.9776 114.929 97.1047 116.014 97.2409 117.09Z" fill="#E0E0E0"/>
<path d="M71.1812 123.959H48.69C48.5493 122.874 48.4131 121.784 48.2769 120.699H70.768C70.9042 121.784 71.0404 122.874 71.1812 123.959Z" fill="#E0E0E0"/>
<path d="M84.6105 123.959H74.8995C74.7587 122.874 74.6225 121.784 74.4863 120.699H84.1974C84.3336 121.784 84.4879 122.874 84.6105 123.959Z" fill="#E0E0E0"/>
<path d="M25.0139 39.2516L24.3738 38.2346C22.9755 36.01 20.1243 34.026 19.1392 33.4449L19.8746 32.1419C21.8075 33.3157 23.5344 34.7988 24.9867 36.5321C27.184 33.5403 30.4347 30.4485 34.8839 27.1252L35.8237 28.351C31.0748 31.9059 27.7515 35.161 25.6541 38.2936L25.0139 39.2516Z" fill="#D7D7D7"/>
<path d="M26.7392 67.5177L26.0718 66.5008C24.619 64.2762 21.7134 62.2877 20.7146 61.7065L21.4092 60.4036C23.3789 61.5777 25.1464 63.0616 26.6438 64.7983C28.7595 61.8019 31.9239 58.7101 36.2868 55.3823C36.6091 55.7909 36.936 56.1995 37.2584 56.6127C32.6049 60.172 29.3678 63.4227 27.3566 66.5598C27.1478 66.8776 26.9435 67.1999 26.7392 67.5177Z" fill="#D7D7D7"/>
<path d="M29.2453 95.861L28.5506 94.844C27.0343 92.6194 24.0742 90.6309 23.0618 90.0543C23.2797 89.6003 23.5158 89.1826 23.7246 88.7513C25.725 89.9274 27.5294 91.4086 29.0727 93.1415C31.1112 90.1451 34.1938 87.0579 38.4614 83.7256L39.4693 84.9559C34.9293 88.5153 31.7513 91.7659 29.8309 94.903L29.2453 95.861Z" fill="#D7D7D7"/>
<path d="M75.013 139.999C72.3344 139.999 70.7908 139.009 69.4288 138.137C68.0668 137.266 66.8955 136.512 64.6346 136.512C62.3737 136.512 61.3658 137.302 60.2989 138.137C59.232 138.973 57.9244 139.999 55.2458 139.999C52.5672 139.999 51.0237 139.009 49.6662 138.137C48.3087 137.266 47.1374 136.512 44.872 136.512C42.6065 136.512 41.6032 137.302 40.5363 138.137C39.4694 138.973 38.1618 139.999 35.4878 139.999C32.8137 139.999 31.2656 139.009 29.9036 138.137C28.5416 137.266 27.3748 136.512 25.1093 136.512C25.0503 136.058 24.9868 135.64 24.9277 135.205C27.6063 135.205 29.1454 136.194 30.5074 137.066C31.8694 137.938 33.0362 138.691 35.2971 138.691C37.558 138.691 38.5659 137.901 39.6328 137.066C40.6997 136.231 42.0118 135.205 44.6904 135.205C47.3689 135.205 48.9035 136.194 50.2655 137.066C51.6275 137.938 52.7988 138.691 55.0597 138.691C57.3206 138.691 58.3285 137.901 59.3954 137.066C60.4623 136.231 61.7744 135.205 64.453 135.205C67.1316 135.205 68.6706 136.194 70.0326 137.066C71.3946 137.938 72.5614 138.691 74.8269 138.691C74.8859 139.127 74.954 139.563 75.013 139.999Z" fill="#EBEBEB"/>
<path d="M78.8537 13.6097C77.3192 9.52372 73.7735 6.84058 69.9599 6.84058H62.1874C61.6088 6.83554 61.0444 6.66077 60.5642 6.33795C60.084 6.01513 59.7092 5.55847 59.4861 5.02458C58.9367 3.71968 58.0178 2.6038 56.8426 1.81415C55.6674 1.0245 54.2871 0.595505 52.8713 0.579921C51.5017 0.566032 50.1635 0.989624 49.0513 1.78904C47.9391 2.58846 47.1111 3.72197 46.6878 5.02458C46.5154 5.55755 46.1769 6.02135 45.7219 6.34811C45.2668 6.67486 44.7192 6.84744 44.1591 6.84058H36.3911C32.573 6.84058 29.286 9.53734 28.151 13.6097L27.697 15.2305H79.453L78.8537 13.6097Z" fill="#8687E7"/>
<path d="M79.1307 16.8286H28.1919C27.7623 16.8236 27.3505 16.6559 27.0396 16.3594C26.7288 16.0628 26.5419 15.6594 26.5166 15.2305C26.5055 15.0245 26.5366 14.8183 26.6081 14.6247C26.6797 14.4312 26.7901 14.2543 26.9326 14.105C27.0751 13.9557 27.2466 13.8372 27.4366 13.7567C27.6267 13.6762 27.8312 13.6355 28.0375 13.637H78.9763C79.4052 13.6419 79.8163 13.809 80.1271 14.1046C80.4378 14.4002 80.6252 14.8025 80.6516 15.2305C80.6634 15.437 80.6327 15.6437 80.5614 15.8378C80.4902 16.0319 80.3799 16.2093 80.2373 16.3591C80.0948 16.5089 79.923 16.6278 79.7327 16.7086C79.5423 16.7894 79.3374 16.8302 79.1307 16.8286Z" fill="#BCBDFF"/>
<path opacity="0.2" d="M79.1307 16.8286H28.1919C27.7623 16.8236 27.3505 16.6559 27.0396 16.3594C26.7288 16.0628 26.5419 15.6594 26.5166 15.2305C26.5055 15.0245 26.5366 14.8183 26.6081 14.6247C26.6797 14.4312 26.7901 14.2543 26.9326 14.105C27.0751 13.9557 27.2466 13.8372 27.4366 13.7567C27.6267 13.6762 27.8312 13.6355 28.0375 13.637H78.9763C79.4052 13.6419 79.8163 13.809 80.1271 14.1046C80.4378 14.4002 80.6252 14.8025 80.6516 15.2305C80.6634 15.437 80.6327 15.6437 80.5614 15.8378C80.4902 16.0319 80.3799 16.2093 80.2373 16.3591C80.0948 16.5089 79.923 16.6278 79.7327 16.7086C79.5423 16.7894 79.3374 16.8302 79.1307 16.8286Z" fill="black"/>
</svg>
